<?xml version="1.0" encoding="UTF-8"?>
<svg id="Layer_1" data-name="Layer 1" xmlns="http://www.w3.org/2000/svg" version="1.1" viewBox="0 0 448 512">
  <defs>
    <style>
      .cls-1 {
        fill: #202020;
        stroke-width: 0px;
      }
    </style>
  </defs>
  <path class="cls-1" d="M448,96c0-35.3-28.7-64-64-64H64C28.7,32,0,60.7,0,96v320c0,35.3,28.7,64,64,64h320c35.3,0,64-28.7,64-64V96ZM265.8,407.7c0-1.8,0-6,.1-11.6.1-11.4.1-28.8.1-43.7s-5.2-25.5-11.3-30.7c37-4.1,76-9.2,76-73.1s-6.5-27.3-17.1-39c1.7-4.3,7.4-22-1.7-45-13.9-4.3-45.7,17.9-45.7,17.9-13.2-3.7-27.5-5.6-41.6-5.6s-28.4,1.9-41.6,5.6c0,0-31.8-22.2-45.7-17.9-9.1,22.9-3.5,40.6-1.7,45-10.6,11.7-15.6,20.8-15.6,39,0,63.6,37.3,69,74.3,73.1-4.8,4.3-9.1,11.7-10.6,22.3-9.5,4.3-33.8,11.7-48.3-13.9-9.1-15.8-25.5-17.1-25.5-17.1-16.2-.2-1.1,10.2-1.1,10.2,10.8,5,18.4,24.2,18.4,24.2,9.7,29.7,56.1,19.7,56.1,19.7,0,9,.1,21.7.1,30.6s.1,8.6.1,10c0,4.3-3,9.5-11.5,8-66-22.1-112.2-84.9-112.2-158.3S130,95.9,221.8,95.9s166.2,69.7,166.2,161.5c.1,73.4-44.7,136.3-110.7,158.3-8.4,1.5-11.5-3.7-11.5-8ZM175.3,352.9c-.2-1.5,1.1-2.8,3-3.2,1.9-.2,3.7.6,3.9,1.9.3,1.3-1,2.6-3,3-1.9.4-3.7-.4-3.9-1.7h0ZM166.2,356.1c-2.2.2-3.7-.9-3.7-2.4s1.5-2.4,3.5-2.4c1.9-.2,3.7.9,3.7,2.4s-1.5,2.4-3.5,2.4ZM151.9,353.9c-1.9-.4-3.2-1.9-2.8-3.2s2.4-1.9,4.1-1.5c2,.6,3.3,2.1,2.8,3.4-.4,1.3-2.4,1.9-4.1,1.3h0ZM139.4,346.6c-1.5-1.3-1.9-3.2-.9-4.1.9-1.1,2.8-.9,4.3.6,1.3,1.3,1.8,3.3.9,4.1-.9,1.1-2.8.9-4.3-.6ZM130.9,336.6c-1.1-1.5-1.1-3.2,0-3.9,1.1-.9,2.8-.2,3.7,1.3,1.1,1.5,1.1,3.3,0,4.1-.9.6-2.6,0-3.7-1.5ZM124.6,327.8c-1.1-1.3-1.3-2.8-.4-3.5.9-.9,2.4-.4,3.5.6,1.1,1.3,1.3,2.8.4,3.5-.9.9-2.4.4-3.5-.6ZM118.6,321.4c-1.3-.6-1.9-1.7-1.5-2.6.4-.6,1.5-.9,2.8-.4,1.3.7,1.9,1.8,1.5,2.6-.4.9-1.7,1.1-2.8.4Z"/>
</svg>