<?xml version="1.0" encoding="UTF-8"?><svg id="Layer_2" fill="#ffffff" xmlns="http://www.w3.org/2000/svg" viewBox="0 0 50 50.01"><defs><style>.cls-1{fill:none;}</style></defs><g id="Layer_1-2"><rect class="cls-1" x="0" y="0" width="50" height="50"/><path d="m48.13,32.92c-8.86,4.01-19.44,2.11-26.3-4.76S13.06,10.73,17.09,1.88c.23-.51.12-1.1-.28-1.48-.38-.4-.98-.51-1.48-.28-2.9,1.31-5.49,3.1-7.67,5.3C2.72,10.35,0,16.91,0,23.89s2.72,13.53,7.66,18.47c4.93,4.93,11.49,7.64,18.47,7.64s13.53-2.72,18.47-7.64c2.19-2.2,3.98-4.78,5.29-7.69.23-.51.12-1.09-.26-1.48-.4-.39-.98-.51-1.49-.27Z"/></g></svg>