<?xml version="1.0" encoding="UTF-8"?><svg id="Layer_2" fill="#090b16" xmlns="http://www.w3.org/2000/svg" viewBox="0 0 50 50"><defs><style>.cls-1{fill:none;}</style></defs><g id="Layer_1-2"><rect class="cls-1" width="50" height="50"/><path d="m25,38.42c-7.33,0-13.33-6-13.33-13.33s6-13.33,13.33-13.33,13.33,6,13.33,13.33-6,13.33-13.33,13.33Z"/><path d="m34.17,10.83c-.25,0-.58-.08-.83-.25-.83-.5-1.08-1.5-.58-2.25l1.25-2.25c.5-.83,1.5-1.08,2.25-.58.83.5,1.08,1.5.58,2.25l-1.25,2.25c-.33.58-.83.83-1.42.83Z"/><path d="m45.83,26.67h-2.58c-.92,0-1.67-.75-1.67-1.67s.75-1.67,1.67-1.67h2.58c.92,0,1.67.75,1.67,1.67s-.75,1.67-1.67,1.67Z"/><path d="m35.42,44.75c-.58,0-1.17-.33-1.42-.83l-1.33-2.25c-.5-.83-.17-1.83.58-2.25.83-.5,1.83-.17,2.25.58l1.25,2.25c.5.83.17,1.83-.58,2.25-.17.17-.5.25-.75.25Z"/><path d="m14.58,44.75c-.25,0-.58-.08-.83-.25-.83-.5-1.08-1.5-.58-2.25l1.25-2.25c.5-.83,1.5-1.08,2.25-.58.83.5,1.08,1.5.58,2.25l-1.25,2.25c-.25.5-.83.83-1.42.83Z"/><path d="m6.75,26.67h-2.58c-.92,0-1.67-.75-1.67-1.67s.75-1.67,1.67-1.67h2.58c.92,0,1.67.75,1.67,1.67s-.75,1.67-1.67,1.67Z"/><path d="m15.83,10.83c-.58,0-1.17-.33-1.42-.83l-1.25-2.25c-.5-.83-.17-1.83.58-2.25.83-.5,1.83-.17,2.25.58l1.25,2.25c.5.83.17,1.83-.58,2.25-.25.17-.5.25-.83.25Z"/><path d="m25,8.42c-.92,0-1.67-.75-1.67-1.67V1.67c0-.92.75-1.67,1.67-1.67s1.67.75,1.67,1.67v5.08c0,.92-.75,1.67-1.67,1.67Z"/><path d="m40.83,17.5c-.58,0-1.17-.33-1.42-.83-.5-.83-.17-1.83.58-2.25l4.42-2.5c.83-.5,1.83-.17,2.25.58.5.83.17,1.83-.58,2.25l-4.42,2.5c-.25.25-.58.25-.83.25Z"/><path d="m45.17,38.33c-.25,0-.58-.08-.83-.25l-4.42-2.5c-.83-.5-1.08-1.5-.58-2.25s1.5-1.08,2.25-.58l4.42,2.5c.83.5,1.08,1.5.58,2.25-.25.5-.83.83-1.42.83Z"/><path d="m25,50c-.92,0-1.67-.75-1.67-1.67v-5.08c0-.92.75-1.67,1.67-1.67s1.67.75,1.67,1.67v5.08c0,.92-.75,1.67-1.67,1.67Z"/><path d="m4.83,38.33c-.58,0-1.17-.33-1.42-.83-.5-.83-.17-1.83.58-2.25l4.42-2.5c.83-.5,1.83-.17,2.25.58.5.83.17,1.83-.58,2.25l-4.42,2.5c-.33.17-.58.25-.83.25Z"/><path d="m9.17,17.5c-.25,0-.58-.08-.83-.25l-4.42-2.5c-.75-.42-1-1.42-.58-2.25.5-.83,1.5-1.08,2.25-.58l4.42,2.5c.83.5,1.08,1.5.58,2.25-.25.58-.83.83-1.42.83Z"/></g></svg>