<?xml version="1.0" standalone="no"?>
<!DOCTYPE svg PUBLIC "-//W3C//DTD SVG 20010904//EN"
 "http://www.w3.org/TR/2001/REC-SVG-20010904/DTD/svg10.dtd">
<svg version="1.0" xmlns="http://www.w3.org/2000/svg"
 width="1000.000000pt" height="1000.000000pt" viewBox="0 0 1000.000000 1000.000000"
 preserveAspectRatio="xMidYMid meet">
<metadata>
Created by potrace 1.14, written by Peter Selinger 2001-2017
</metadata>
<g transform="translate(0.000000,1000.000000) scale(0.100000,-0.100000)"
fill="#000000" stroke="none">
<path d="M0 5000 l0 -5000 5000 0 5000 0 0 5000 0 5000 -5000 0 -5000 0 0
-5000z m1770 2325 l0 -115 1470 0 1470 0 0 115 0 115 290 0 290 0 0 -115 0
-115 1470 0 1470 0 0 115 0 115 288 -2 287 -3 0 -290 0 -290 -107 -3 -108 -3
0 -1849 0 -1849 108 -3 107 -3 0 -290 0 -290 -287 -3 -288 -2 0 90 0 90 -1470
0 -1470 0 0 -90 0 -90 -290 0 -290 0 0 90 0 90 -1470 0 -1470 0 0 -90 0 -90
-287 2 -288 3 0 290 0 290 108 3 107 3 0 1849 0 1849 -107 3 -108 3 -3 280
c-1 154 0 285 3 292 3 10 69 13 290 13 l285 0 0 -115z"/>
<path d="M1330 7145 l0 -155 155 0 155 0 0 155 0 155 -155 0 -155 0 0 -155z"/>
<path d="M4850 7145 l0 -155 150 0 150 0 0 155 0 155 -150 0 -150 0 0 -155z"/>
<path d="M8360 7145 l0 -155 155 0 155 0 0 155 0 155 -155 0 -155 0 0 -155z"/>
<path d="M2390 6364 l0 -716 67 62 c170 155 367 245 628 287 138 22 440 13
578 -16 660 -143 1101 -630 1192 -1320 19 -136 19 -366 0 -502 -79 -601 -424
-1052 -955 -1250 l-75 -28 443 -1 442 0 0 135 0 135 290 0 290 0 0 -135 0
-135 568 0 567 0 -105 35 c-481 160 -847 516 -999 970 -62 187 -75 277 -75
525 0 196 3 238 23 330 67 315 194 558 400 772 242 251 534 405 898 474 135
25 450 30 593 10 377 -55 671 -197 915 -441 153 -153 264 -329 341 -540 l33
-90 1 963 0 962 -110 0 -110 0 0 115 0 115 -1470 0 -1470 0 0 -115 0 -115
-290 0 -290 0 0 115 0 115 -1160 0 -1160 0 0 -716z"/>
<path d="M6780 5320 c-218 -30 -404 -143 -517 -313 -49 -74 -106 -211 -118
-284 l-7 -43 761 0 761 0 0 24 c0 41 -40 157 -83 241 -31 60 -63 102 -127 166
-73 73 -101 94 -180 132 -52 25 -124 52 -160 61 -82 20 -245 28 -330 16z"/>
<path d="M3028 5260 c-188 -34 -354 -128 -464 -261 -59 -72 -117 -185 -151
-294 -26 -86 -27 -99 -27 -295 0 -195 1 -209 27 -293 69 -224 193 -381 378
-477 124 -64 209 -83 374 -83 166 0 249 19 378 84 122 63 246 190 310 319 78
156 91 221 91 450 0 170 -3 205 -22 275 -76 279 -269 480 -532 555 -84 24
-282 35 -362 20z"/>
<path d="M6150 4147 c0 -13 46 -139 62 -172 102 -200 289 -344 526 -404 182
-47 417 -47 612 -1 115 28 284 113 388 196 46 37 87 63 91 58 33 -37 394 -429
430 -467 l46 -48 -84 -79 c-148 -140 -309 -239 -511 -311 l-105 -38 313 0 312
-1 0 135 0 135 110 0 110 0 0 500 0 500 -1150 0 c-632 0 -1150 -2 -1150 -3z"/>
<path d="M2350 3039 l0 -159 237 0 c130 0 234 2 232 4 -2 2 -39 18 -82 36
-103 43 -235 130 -319 212 l-68 65 0 -158z"/>
<path d="M1330 2855 l0 -155 155 0 155 0 0 155 0 155 -155 0 -155 0 0 -155z"/>
<path d="M4850 2855 l0 -155 150 0 150 0 0 155 0 155 -150 0 -150 0 0 -155z"/>
<path d="M8360 2855 l0 -155 155 0 155 0 0 155 0 155 -155 0 -155 0 0 -155z"/>
</g>
</svg>
