<?xml version="1.0" encoding="UTF-8"?><svg id="Layer_2" xmlns="http://www.w3.org/2000/svg" viewBox="0 0 288.39 73.24"><defs><style>.cls-1{fill:#1b0144;}</style></defs><g id="Layer_1-2"><g><path class="cls-1" d="M115.79,45.49c0-14.1,10.88-24.1,25.75-24.1s25.67,10.01,25.67,24.1-10.79,24.1-25.67,24.1-25.75-10.01-25.75-24.1Zm37.67,0c0-8.09-5.13-12.96-11.92-12.96s-12.01,4.87-12.01,12.96,5.22,12.96,12.01,12.96,11.92-4.87,11.92-12.96Z"/><path class="cls-1" d="M205.31,21.39v12.53c-1.13-.09-2-.17-3.04-.17-7.48,0-12.44,4.09-12.44,13.05v22.1h-13.57V22.09h12.96v6.18c3.31-4.52,8.88-6.87,16.1-6.87Z"/><path class="cls-1" d="M260.64,4.34V68.9h-12.96v-5.39c-3.39,4.09-8.35,6.09-14.62,6.09-13.23,0-23.4-9.4-23.4-24.1s10.18-24.1,23.4-24.1c5.74,0,10.61,1.83,14.01,5.66V4.34h13.57Zm-13.31,41.15c0-8.09-5.22-12.96-11.92-12.96s-12.01,4.87-12.01,12.96,5.22,12.96,12.01,12.96,11.92-4.87,11.92-12.96Z"/><path class="cls-1" d="M271.51,7.99c0-4.26,3.39-7.57,8.44-7.57s8.44,3.13,8.44,7.31c0,4.52-3.39,7.83-8.44,7.83s-8.44-3.31-8.44-7.57Zm1.65,14.09h13.57v46.81h-13.57V22.09Z"/><path class="cls-1" d="M112.56,0h-6.68V3.34H61.62V0h-8.68V3.34H8.68V0H0V8.68H3.34v55.88H0v8.68H8.68v-2.64H52.94v2.64h8.68v-2.64h44.26v2.64h8.68v-8.68h-3.34V8.68h3.34V0h-2ZM54.94,2h4.68V6.68h-4.68V2ZM2,2H6.68V6.68H2V2ZM6.68,71.24H2v-4.68H6.68v4.68Zm10.62-2.64v-5.09c2.02,2.44,4.65,4.12,7.76,5.09h-7.76Zm12.35-10.14c-6.79,0-11.92-4.87-11.92-12.96s5.13-12.96,11.92-12.96,11.92,4.87,11.92,12.96-5.13,12.96-11.92,12.96Zm29.96,12.78h-4.68v-4.68h4.68v4.68Zm52.94,0h-4.68v-4.68h4.68v4.68Zm-4.68-6.68h-2v4.04h-9.96c4.51-1.18,8.2-3.39,10.99-6.57l-7.22-7.83c-3.22,3.05-6.79,4.52-11.75,4.52-7.13,0-12.09-3.57-13.4-9.4h34.67v15.24h-1.34Zm-33.51-23.15c.96-6,5.39-9.74,11.57-9.74s10.53,3.83,11.48,9.74h-23.06Zm34.85-3.3c-2.94-10.52-12.1-16.71-23.36-16.71-14.27,0-24.97,10.09-24.97,24.1,0,11.35,7.01,20.22,18.37,23.1h-17.64v-4.04h-8.68v4.04h-13.79c9.51-2.78,16.17-11.2,16.17-23.1,0-14.7-10.18-24.1-23.32-24.1-5.83,0-10.61,1.83-14.09,5.66V5.34H52.94v3.34h8.68v-3.34h44.26v3.34h3.34v29.42Zm3.34-31.42h-4.68V2h4.68V6.68Z"/></g></g></svg>