<?xml version="1.0" encoding="UTF-8"?><svg id="Layer_2" xmlns="http://www.w3.org/2000/svg" viewBox="0 0 58.19 70.65"><g id="Layer_1-2"><g id="bird"><path id="body" d="m24.11,55.47c-1.94.43-3.81,1.15-5.49,2.2-2.58,1.61-4.81,2.13-6.52,2.26-4.5.34-7.8-1.84-10.48.2-.27.21-1.38,1.05-1.58,2.37-.5,3.29,4.95,7.66,10.29,8.11,5.09.43,8.89-2.83,9.89-3.76,3.5,1.69,8.21,3.3,13.85,3.56,3.38.16,12.61.58,18.79-5.34.21-.2.38-.38.49-.49,1.62-.08,3.23-.16,4.85-.25-.21-.82-.99-3.46-3.56-5.34-3.56-2.61-7.6-1.63-8.16-1.48-2.65-1.13-6.59-2.44-11.52-2.82-4.23-.33-7.93.13-10.83.78Z"/><path id="left-wing" d="m38.21,51.03c-1.66-13.25-6.35-20.81-10.48-25.32-3.11-3.38-6.93-6.15-10.29-12.26-2.83-5.15-3.9-10.06-4.35-13.45-2.04,4.44-6.59,15.91-4.35,30.66,2,13.17,8.37,22.08,11.47,25.91l3.36,4.95,15.92-4.55-1.29-5.93Z"/><path id="right-wing" d="m46.47,57.51l-9.15,2.62-3.26-6.63,4.15-2.47c2.74-1.56,5.79-3.52,8.95-5.98,3.96-3.09,7.14-6.21,9.64-9,.31.9,2.77,8.3-1.68,14.98-2.92,4.39-7.17,5.99-8.65,6.48"/></g></g></svg>