<?xml version="1.0" encoding="UTF-8"?><svg id="Layer_2" xmlns="http://www.w3.org/2000/svg" viewBox="0 0 441.71 68.06"><g id="Layer_1-2"><path d="m165.85,10l-12.3,48.08h-9l-11-34.87c-.29,2.34-1.55,7.83-3.79,16.48l-4.62,18.39h-9.06l12.27-48.14h12.19l9,29.34c.17-.94,1.3-5.61,3.39-14l3.92-15.28h9Z"/><polygon points="186.49 10 174.26 58.06 163.18 58.06 175.42 10 186.49 10"/><path d="m229.56,28.1l-11,.53c.11-.73.18-1.26.21-1.71.28-2.14-.16-4.31-1.26-6.17-1.19-1.74-3.22-2.7-5.31-2.52-4.04,0-7.15,2.43-9.33,7.28-2.08,4.5-3.39,9.32-3.87,14.25-.31,3.46.21,5.98,1.56,7.57,1.37,1.6,3.4,2.48,5.5,2.38,4.72,0,8.22-2.94,10.5-8.83l9.76,1.73c-4.65,10.93-11.97,16.39-21.96,16.39-6.17,0-10.71-2.03-13.63-6.1-2.97-4.3-4.26-9.55-3.61-14.74.57-7.43,3.42-14.51,8.15-20.27,4.18-5.54,10.73-8.78,17.67-8.74,4.59-.2,9.06,1.47,12.39,4.63,3.17,3.07,4.58,7.84,4.23,14.32Z"/><path d="m278.37,10l-16.71,17.26,6.63,30.8h-11.36l-4.19-22.34-10.44,10.8-2.93,11.54h-10.52l12.19-48.06h10.61l-5.8,22.59,1.67-1.94c1-1.13,1.82-2.07,2.53-2.86l17-17.81,11.32.02Z"/><polygon points="315.17 19.13 303.06 19.13 293.13 58.13 282.05 58.13 291.98 19.13 279.85 19.13 282.16 9.99 317.49 9.99 315.17 19.13"/><polygon points="356.22 10 353.85 19.11 331.24 19.11 328.72 29 347.65 29 345.44 37.71 326.51 37.71 323.63 49 346.63 49 344.3 58.1 310.07 58.1 322.31 10 356.22 10"/><path d="m392.71,21.81l-10.1,2.29c-.78-4-3.34-6-7.69-6-1.76-.08-3.5.43-4.94,1.44-1.17.79-1.93,2.06-2.08,3.46-.19,1.17.26,2.35,1.17,3.11,1.65,1,3.46,1.7,5.35,2.07,3.1.72,6.12,1.77,9,3.11,2.04.99,3.72,2.59,4.8,4.58,1.08,2.23,1.49,4.72,1.18,7.17-.35,4.45-2.52,8.56-6,11.36-3.59,3.07-8.47,4.6-14.63,4.6-5.26,0-9.53-1.21-12.81-3.64-3.28-2.43-5.13-6.09-5.54-11l10.5-1.43c.67,4.77,3.71,7.16,9.14,7.16,2.05.11,4.09-.46,5.79-1.61,1.33-.92,2.18-2.39,2.32-4,.24-1.27-.25-2.56-1.26-3.36-2.11-1.16-4.38-2.01-6.74-2.52-2.66-.65-5.23-1.63-7.65-2.91-1.85-1.02-3.35-2.59-4.3-4.48-1.02-2.05-1.42-4.35-1.16-6.63.4-4.16,2.39-8.01,5.55-10.75,3.61-3.19,8.32-4.86,13.13-4.65,9.33.02,14.99,4.22,16.97,12.61v.02Z"/><polygon points="441.71 10 429.44 58.06 418.85 58.06 424 37.86 408.42 37.86 403.28 58.06 392.71 58.06 404.95 9.94 415.56 9.94 410.76 28.87 426.29 28.87 431.11 10 441.71 10"/><polygon points="65 68.06 78.7 16.83 100.22 16.83 104.72 0 63.38 0 45.19 68.06 65 68.06"/><polygon points="0 68.06 9.91 30.92 25.38 68.06 0 68.06"/><polygon points="43.63 0 33.71 37.15 18.26 0 43.63 0"/></g></svg>