<?xml version="1.0" encoding="utf-8"?>
<!-- Generator: Adobe Illustrator 27.9.2, SVG Export Plug-In . SVG Version: 6.00 Build 0)  -->
<svg version="1.1" id="ufo-svg" xmlns="http://www.w3.org/2000/svg" xmlns:xlink="http://www.w3.org/1999/xlink" x="0px" y="0px"
	 viewBox="0 0 65.9 37.6" style="enable-background:new 0 0 65.9 37.6;" xml:space="preserve">
<style type="text/css">
	.st0{fill:#47682A;}
	.st1{fill:#567C31;}
	.st2{fill:#131C0A;}
	.st3{fill:#FFFFFF;}
	.st4{fill:none;stroke:#131C0A;stroke-width:0.1436;stroke-miterlimit:10;}
	.st5{fill:#292935;}
	.st6{fill:#0E0E14;}
	.st7{fill:#484854;}
	.st8{opacity:0.7;}
	.st9{opacity:0.5;}
	.st10{fill:url(#SVGID_1_);}
	.st11{opacity:0.15;fill:#FFFFFF;}
	.st12{opacity:0.47;fill:#FFFFFF;}
</style>
<g>
	<g>
		<g>
			<rect x="32.1" y="14.6" class="st0" width="1.6" height="2.8"/>
			<ellipse class="st1" cx="32.9" cy="11.4" rx="4" ry="4.7"/>
			<g>
				<g>
					<ellipse transform="matrix(0.771 -0.6369 0.6369 0.771 0.3009 22.3822)" class="st2" cx="31.3" cy="10.8" rx="1.1" ry="1.5"/>
					<circle class="st3" cx="31.6" cy="10.5" r="0.3"/>
				</g>
				<g>
					<ellipse transform="matrix(0.6369 -0.771 0.771 0.6369 4.266 30.6031)" class="st2" cx="34.6" cy="10.8" rx="1.5" ry="1.1"/>
					<circle class="st3" cx="34.3" cy="10.5" r="0.3"/>
				</g>
			</g>
			<g>
				<path class="st2" d="M32.9,14.2c-0.6,0-1.1-0.4-1.1-1c0-0.1,0.1-0.1,0.1-0.1s0.1,0.1,0.1,0.1c0,0.4,0.4,0.7,0.9,0.7
					s0.9-0.3,0.9-0.7c0-0.1,0.1-0.1,0.1-0.1s0.1,0.1,0.1,0.1C34.1,13.8,33.6,14.2,32.9,14.2z"/>
			</g>
		</g>
		<g>
			<line class="st4" x1="32.3" y1="9.5" x2="31.5" y2="8.6"/>
			<line class="st4" x1="33.6" y1="9.5" x2="34.4" y2="8.6"/>
		</g>
	</g>
	<g>
		<g>
			<g>
				<g>
					<path d="M27,5.8c-1.2,0.7-2.3,1.7-3,2.9c-1.3,1.9-1.6,3.8-1.6,5.1c0,0.4,0.3,0.7,0.7,0.7c0,0,0,0,0,0c0.4,0,0.7-0.3,0.7-0.7
						c0-1.1,0.3-2.7,1.4-4.3c0.7-1,1.5-1.8,2.6-2.4c0.3-0.2,0.5-0.6,0.3-1C27.8,5.7,27.4,5.6,27,5.8z"/>
					<path d="M65.9,25.3C65.9,25.3,65.9,25.3,65.9,25.3C65.9,25.3,65.9,25.3,65.9,25.3c0-0.1,0-0.1,0-0.2c0,0,0,0,0,0c0,0,0,0,0,0
						c0-0.1,0-0.1-0.1-0.1c0,0,0,0,0,0c0,0,0,0,0,0c0,0,0,0,0,0c0,0,0,0,0,0c0,0,0,0,0,0c0-0.1-0.1-0.1-0.1-0.1c0,0,0,0,0,0
						c0,0,0,0,0,0l-2.1-1.7c-0.6-0.5-1.2-0.9-1.8-1.3c-0.3-0.2-0.6-0.4-0.8-0.6c-0.3-0.2-0.7-0.4-1-0.7c-0.4-0.2-0.7-0.5-1.1-0.7
						c-0.2-0.1-0.5-0.3-0.7-0.4c-0.4-0.3-0.9-0.5-1.3-0.7c-0.2-0.1-0.3-0.2-0.5-0.3c-0.5-0.3-1-0.5-1.5-0.8
						c-0.1-0.1-0.2-0.1-0.3-0.2c-0.6-0.3-1.1-0.5-1.7-0.8c-0.1,0-0.1-0.1-0.2-0.1c-0.6-0.3-1.2-0.5-1.8-0.7c0,0-0.1,0-0.1,0
						c-0.6-0.2-1.3-0.5-2-0.7c0-5-2.4-9.4-6.1-12.2c0,0,0,0,0,0c-0.2-0.1-0.4-0.3-0.6-0.4c0,0,0,0-0.1,0c-0.2-0.1-0.4-0.2-0.6-0.4
						c0,0,0,0,0,0c-0.2-0.1-0.4-0.2-0.6-0.3c0,0-0.1,0-0.1-0.1c-0.2-0.1-0.3-0.2-0.5-0.3c-0.1,0-0.1-0.1-0.2-0.1
						c-0.2-0.1-0.3-0.1-0.5-0.2c-0.1,0-0.1-0.1-0.2-0.1c-0.2-0.1-0.3-0.1-0.5-0.2c-0.1,0-0.1,0-0.2-0.1c-0.2-0.1-0.3-0.1-0.5-0.2
						c-0.1,0-0.2,0-0.2-0.1c-0.2,0-0.3-0.1-0.5-0.1c-0.2,0-0.3-0.1-0.5-0.1c-0.1,0-0.2,0-0.3-0.1c-0.2,0-0.3-0.1-0.5-0.1
						c-0.1,0-0.2,0-0.3,0c-0.1,0-0.2,0-0.3,0C34.9,0.1,34.5,0,34.1,0c-0.3,0-0.5,0-0.8,0c-0.3,0-0.5,0-0.8,0c-0.1,0-0.2,0-0.3,0
						c-0.2,0-0.3,0-0.5,0c-0.1,0-0.2,0-0.3,0c-0.1,0-0.3,0-0.4,0.1c-0.1,0-0.2,0-0.4,0.1c-0.1,0-0.3,0-0.4,0.1
						c-0.1,0-0.3,0.1-0.4,0.1c-0.1,0-0.2,0.1-0.4,0.1c-0.1,0-0.3,0.1-0.4,0.1c-0.1,0-0.2,0.1-0.3,0.1c-0.1,0-0.3,0.1-0.4,0.1
						c-0.1,0-0.2,0.1-0.3,0.1C27.9,1,27.8,1,27.6,1.1c-0.1,0-0.2,0.1-0.3,0.1c-0.1,0.1-0.3,0.1-0.4,0.2c-0.1,0-0.2,0.1-0.2,0.1
						c-0.2,0.1-0.3,0.2-0.5,0.2c-0.1,0-0.1,0.1-0.2,0.1c-0.2,0.1-0.3,0.2-0.5,0.3c-0.1,0-0.1,0.1-0.2,0.1c-0.2,0.1-0.3,0.2-0.5,0.3
						c0,0-0.1,0.1-0.1,0.1c-0.2,0.1-0.3,0.2-0.5,0.3c0,0-0.1,0.1-0.1,0.1c-0.2,0.1-0.3,0.2-0.5,0.4c0,0-0.1,0-0.1,0.1
						c-0.2,0.1-0.3,0.3-0.5,0.4c0,0,0,0-0.1,0.1c-0.2,0.1-0.3,0.3-0.5,0.5c0,0,0,0,0,0c-0.2,0.2-0.3,0.3-0.5,0.5c0,0,0,0,0,0
						c-0.2,0.2-0.3,0.3-0.5,0.5c0,0,0,0,0,0c-0.2,0.2-0.3,0.4-0.4,0.6c0,0,0,0,0,0c-1.9,2.5-3.1,5.6-3.1,9c-0.7,0.2-1.4,0.4-2,0.7
						c0,0,0,0,0,0c-0.7,0.2-1.3,0.5-2,0.8c0,0-0.1,0-0.1,0c-0.6,0.3-1.2,0.5-1.8,0.8c-0.1,0-0.1,0.1-0.2,0.1
						c-0.6,0.3-1.1,0.5-1.7,0.8c-0.1,0.1-0.2,0.1-0.4,0.2c-0.5,0.3-1,0.5-1.5,0.8c-0.2,0.1-0.4,0.2-0.6,0.3
						c-0.4,0.2-0.8,0.5-1.3,0.7c-0.3,0.2-0.6,0.4-0.9,0.6c-0.3,0.2-0.6,0.4-0.9,0.6c-0.6,0.4-1.2,0.8-1.8,1.3l-2.6,1.9
						c-0.1,0-0.1,0.1-0.2,0.2v0c0,0,0,0,0,0c0,0,0,0,0,0c0,0,0,0,0,0c0,0-0.1,0.1-0.1,0.2c0,0,0,0,0,0v0c0,0,0,0,0,0c0,0,0,0,0,0
						c0,0,0,0,0,0c0,0.1,0,0.1,0,0.2v0v0c0,0,0,0,0,0c0,0.1,0,0.1,0,0.2c0,0,0,0,0,0c0,0,0,0,0,0c0,0.1,0.1,0.1,0.1,0.2c0,0,0,0,0,0
						c0,0,0,0,0,0c0,0,0,0,0,0c0,0.1,0.1,0.1,0.1,0.1c0,0,0,0,0,0s0,0,0,0c0,0,0,0,0,0c0,0,0.1,0.1,0.2,0.1L13,30.5
						c0.7,0.2,1.3,0.5,2,0.7c0.3,0.1,0.6,0.2,0.9,0.3c0.3,0.1,0.5,0.1,0.8,0.2c0.8,0.2,1.7,0.5,2.5,0.7c0,0,0,0,0,0c0,0,0,0,0,0
						c1.5,1.5,3.4,2.7,5.4,3.6c0,0,0,0,0,0c0.3,0.1,0.6,0.2,0.9,0.4c0,0,0,0,0.1,0c0.3,0.1,0.6,0.2,0.9,0.3c0,0,0.1,0,0.1,0
						c0.3,0.1,0.5,0.2,0.8,0.2c0.1,0,0.1,0,0.2,0c0.3,0.1,0.5,0.1,0.8,0.2c0.1,0,0.2,0,0.2,0c0.2,0.1,0.5,0.1,0.7,0.1
						c0.1,0,0.2,0,0.3,0.1c0.2,0,0.4,0.1,0.7,0.1c0.1,0,0.3,0,0.4,0c0.2,0,0.4,0,0.6,0.1c0.2,0,0.4,0,0.6,0c0.1,0,0.3,0,0.4,0
						c0.3,0,0.7,0,1,0c0.3,0,0.7,0,1,0c0.1,0,0.3,0,0.4,0c0.2,0,0.4,0,0.6,0c0.2,0,0.4,0,0.6-0.1c0.1,0,0.3,0,0.4,0
						c0.2,0,0.4-0.1,0.7-0.1c0.1,0,0.2,0,0.3-0.1c0.2,0,0.5-0.1,0.7-0.1c0.1,0,0.2,0,0.3-0.1c0.3-0.1,0.5-0.1,0.8-0.2
						c0.1,0,0.1,0,0.2,0c0.3-0.1,0.5-0.2,0.8-0.2c0,0,0.1,0,0.1,0c0.3-0.1,0.6-0.2,0.9-0.3c0,0,0,0,0.1,0c0.3-0.1,0.6-0.2,0.9-0.4
						c0,0,0,0,0,0c2.1-0.9,3.9-2.1,5.5-3.7c0.5-0.1,0.9-0.2,1.4-0.4c0.1,0,0.1,0,0.2-0.1c0.4-0.1,0.8-0.2,1.2-0.3
						c0.1,0,0.2-0.1,0.3-0.1c0.4-0.1,0.7-0.2,1.1-0.3c0.1,0,0.2-0.1,0.3-0.1c0.5-0.2,0.9-0.3,1.4-0.5L65.4,26c0.1,0,0.1-0.1,0.2-0.1
						v0c0,0,0,0,0,0c0,0,0,0,0,0c0,0,0,0,0,0c0,0,0.1-0.1,0.1-0.1c0,0,0,0,0,0c0,0,0,0,0,0c0,0,0,0,0,0c0-0.1,0.1-0.1,0.1-0.2
						c0,0,0,0,0,0c0,0,0,0,0,0c0,0,0,0,0,0C65.9,25.5,65.9,25.4,65.9,25.3L65.9,25.3L65.9,25.3C65.9,25.4,65.9,25.4,65.9,25.3z
						 M19.5,14.7c0.3-7.4,6.4-13.3,13.8-13.3s13.5,5.9,13.8,13.3C38.2,17.6,28.4,17.6,19.5,14.7z"/>
				</g>
				<g>
					<g>
						<path d="M33.3,18.3c-5,0-10-0.8-14.8-2.4L18,15.8v-0.5C18,6.8,24.9,0,33.3,0s15.3,6.8,15.3,15.3v0.5L48,15.9
							C43.3,17.5,38.3,18.3,33.3,18.3z M19.5,14.7c8.9,2.8,18.7,2.8,27.6,0C46.8,7.4,40.7,1.4,33.3,1.4S19.7,7.4,19.5,14.7z"/>
					</g>
					<g>
						<path d="M33.3,37.6c-5.5,0-10.7-2-14.2-5.5l1-1c3.3,3.2,8.1,5.1,13.2,5.1c5.2,0,10.1-1.9,13.4-5.2l1,1
							C44.1,35.6,38.9,37.6,33.3,37.6z"/>
					</g>
					<g>
						<path d="M65.2,26.1H0.7c-0.3,0-0.6-0.2-0.7-0.5c-0.1-0.3,0-0.6,0.2-0.8l2.6-2c4.9-3.7,10.3-6.4,16.2-8.1
							c0.4-0.1,0.8,0.1,0.9,0.5s-0.1,0.8-0.5,0.9c-5.7,1.6-11,4.3-15.7,7.9l-0.9,0.7h60.2l-0.5-0.4c-4.7-3.7-10.1-6.4-15.8-8.1
							c-0.4-0.1-0.6-0.5-0.5-0.9c0.1-0.4,0.5-0.6,0.9-0.5c5.9,1.8,11.4,4.5,16.2,8.3l2.1,1.7c0.2,0.2,0.3,0.5,0.2,0.8
							C65.8,25.9,65.5,26.1,65.2,26.1z"/>
					</g>
					<g>
						<path d="M33.1,33.9c-6.8,0-13.6-1.1-20.1-3.4L0.5,26c-0.4-0.1-0.6-0.5-0.4-0.9c0.1-0.4,0.5-0.6,0.9-0.4l12.5,4.5
							C26.3,33.7,40.3,33.6,53,29l11.9-4.3c0.4-0.1,0.8,0.1,0.9,0.4c0.1,0.4-0.1,0.8-0.4,0.9l-11.9,4.3C46.9,32.7,40,33.9,33.1,33.9
							z"/>
					</g>
					<g>
						<g>
							<circle cx="16.7" cy="20.5" r="1.6"/>
						</g>
						<g>
							<circle cx="49.2" cy="20.5" r="1.6"/>
						</g>
					</g>
					<g>
						<path d="M23.1,14.5C23.1,14.5,23.1,14.5,23.1,14.5c-0.4,0-0.7-0.3-0.7-0.7c0-1.3,0.3-3.2,1.6-5.1c0.8-1.2,1.8-2.1,3-2.9
							c0.3-0.2,0.8-0.1,1,0.2c0.2,0.3,0.1,0.8-0.3,1c-1,0.6-1.9,1.4-2.6,2.4c-1.1,1.6-1.3,3.2-1.4,4.3
							C23.8,14.2,23.5,14.5,23.1,14.5z"/>
					</g>
				</g>
				<g>
					<path class="st5" d="M13.5,29.1C26.3,33.7,40.3,33.6,53,29l8.1-2.9H4.9L13.5,29.1z"/>
				</g>
				<g>
					<path class="st6" d="M22.2,32.9c3.1,2.1,7,3.3,11.1,3.3c4.2,0,8.1-1.2,11.2-3.4c-3.8,0.7-7.6,1.1-11.4,1.1
						C29.4,33.9,25.8,33.6,22.2,32.9z"/>
				</g>
				<g>
					<path class="st7" d="M47,16.3c-4.4,1.4-9.1,2-13.7,2c-4.7,0-9.5-0.7-14-2.1C13.6,17.8,8.4,20.4,3.7,24l-0.9,0.7h60.2l-0.5-0.4
						C57.9,20.6,52.7,18,47,16.3z M16.7,22.1c-0.9,0-1.6-0.7-1.6-1.6s0.7-1.6,1.6-1.6c0.9,0,1.6,0.7,1.6,1.6S17.6,22.1,16.7,22.1z
						 M49.2,22.1c-0.9,0-1.6-0.7-1.6-1.6s0.7-1.6,1.6-1.6c0.9,0,1.6,0.7,1.6,1.6S50.1,22.1,49.2,22.1z"/>
				</g>
				<g>
					<path class="st6" d="M16.7,18.9c-0.9,0-1.6,0.7-1.6,1.6s0.7,1.6,1.6,1.6c0.9,0,1.6-0.7,1.6-1.6S17.6,18.9,16.7,18.9z"/>
				</g>
				<g>
					<path class="st6" d="M49.2,18.9c-0.9,0-1.6,0.7-1.6,1.6s0.7,1.6,1.6,1.6c0.9,0,1.6-0.7,1.6-1.6S50.1,18.9,49.2,18.9z"/>
				</g>
				<g class="st8">
					<path class="st3" d="M27,5.8c-1.2,0.7-2.3,1.7-3,2.9c-1.3,1.9-1.6,3.8-1.6,5.1c0,0.4,0.3,0.7,0.7,0.7c0,0,0,0,0,0
						c0.4,0,0.7-0.3,0.7-0.7c0-1.1,0.3-2.7,1.4-4.3c0.7-1,1.5-1.8,2.6-2.4c0.3-0.2,0.5-0.6,0.3-1C27.8,5.7,27.4,5.6,27,5.8z"/>
				</g>
				<g class="st9">
					<linearGradient id="SVGID_1_" gradientUnits="userSpaceOnUse" x1="19.4656" y1="9.1485" x2="47.0883" y2="9.1485">
						<stop  offset="0" style="stop-color:#FFFFFF"/>
						<stop  offset="1" style="stop-color:#FFFFFF;stop-opacity:0.7"/>
					</linearGradient>
					<path class="st10" d="M47.1,14.7C46.8,7.4,40.7,1.4,33.3,1.4S19.7,7.4,19.5,14.7C28.4,17.6,38.2,17.6,47.1,14.7z M27.8,7.1
						c-1,0.6-1.9,1.4-2.6,2.4c-1.1,1.6-1.3,3.2-1.4,4.3c0,0.4-0.3,0.7-0.7,0.7c0,0,0,0,0,0c-0.4,0-0.7-0.3-0.7-0.7
						c0-1.3,0.3-3.2,1.6-5.1c0.8-1.2,1.8-2.1,3-2.9c0.3-0.2,0.8-0.1,1,0.2C28.2,6.4,28.1,6.9,27.8,7.1z"/>
				</g>
			</g>
			<g>
				<path d="M65.9,25.2C65.9,25.2,65.9,25.1,65.9,25.2C65.9,25.1,65.8,25.1,65.9,25.2c0-0.1-0.1-0.2-0.1-0.2c0,0,0,0,0,0
					c0-0.1-0.1-0.1-0.1-0.1c0,0,0,0,0,0l-2.1-1.7c-4.5-3.5-9.5-6.1-14.9-7.9C48.5,6.8,41.7,0,33.3,0C24.9,0,18.1,6.7,18,15
					c-5.5,1.7-10.6,4.3-15.2,7.8l-2.6,1.9c-0.1,0-0.1,0.1-0.2,0.2c0,0,0,0,0,0c0,0-0.1,0.1-0.1,0.2c0,0,0,0,0,0c0,0,0,0,0,0
					c0,0.1,0,0.1,0,0.2c0,0,0,0,0,0c0,0.1,0,0.1,0,0.2c0,0,0,0,0,0c0,0,0,0,0,0c0,0.1,0.1,0.1,0.1,0.2c0,0,0,0,0,0
					c0,0.1,0.1,0.1,0.1,0.1c0,0,0,0,0,0c0,0,0.1,0.1,0.2,0.1L13,30.5c2,0.7,4.1,1.3,6.1,1.8c3.5,3.4,8.7,5.4,14.1,5.4
					c5.5,0,10.7-2,14.2-5.5c2-0.5,4-1.1,6-1.8L65.4,26c0.1,0,0.1-0.1,0.2-0.1c0,0,0,0,0,0c0,0,0.1-0.1,0.1-0.1c0,0,0,0,0,0
					c0-0.1,0.1-0.1,0.1-0.2c0,0,0,0,0,0c0,0,0,0,0,0c0-0.1,0-0.1,0-0.2c0,0,0,0,0,0C65.9,25.3,65.9,25.2,65.9,25.2z M33.3,1.4
					c7.4,0,13.5,5.9,13.8,13.3c-8.9,2.8-18.7,2.8-27.6,0C19.7,7.4,25.8,1.4,33.3,1.4z M33.3,36.2c-4.1,0-8-1.2-11.1-3.3
					c3.6,0.7,7.2,1,10.8,1c3.8,0,7.6-0.4,11.4-1.1C41.4,35,37.4,36.2,33.3,36.2z M53,29c-12.7,4.6-26.8,4.7-39.5,0.1l-8.6-3.1h56.2
					L53,29z M2.9,24.6L3.7,24c4.7-3.5,9.9-6.2,15.5-7.8c4.5,1.4,9.3,2.1,14,2.1c4.6,0,9.3-0.7,13.7-2c5.6,1.7,10.9,4.4,15.6,8
					l0.5,0.4H2.9z"/>
			</g>
		</g>
		<g>
			<g>
				<g>
					<circle class="st11" cx="13.4" cy="27.4" r="0.9"/>
				</g>
				<circle class="st12" cx="13.4" cy="27.4" r="0.8"/>
				<circle class="st3" cx="13.4" cy="27.4" r="0.6"/>
			</g>
			<g>
				<circle class="st11" cx="19" cy="27.4" r="0.9"/>
				<circle class="st12" cx="19" cy="27.4" r="0.8"/>
				<circle class="st3" cx="19" cy="27.4" r="0.6"/>
			</g>
			<g>
				<circle class="st11" cx="24.6" cy="27.4" r="0.9"/>
				<circle class="st12" cx="24.6" cy="27.4" r="0.8"/>
				<circle class="st3" cx="24.6" cy="27.4" r="0.6"/>
			</g>
			<g>
				<circle class="st11" cx="30.1" cy="27.4" r="0.9"/>
				<circle class="st12" cx="30.1" cy="27.4" r="0.8"/>
				<circle class="st3" cx="30.1" cy="27.4" r="0.6"/>
			</g>
			<g>
				<circle class="st11" cx="35.7" cy="27.4" r="0.9"/>
				<circle class="st12" cx="35.7" cy="27.4" r="0.8"/>
				<circle class="st3" cx="35.7" cy="27.4" r="0.6"/>
			</g>
			<g>
				<circle class="st11" cx="41.3" cy="27.4" r="0.9"/>
				<circle class="st12" cx="41.3" cy="27.4" r="0.8"/>
				<circle class="st3" cx="41.3" cy="27.4" r="0.6"/>
			</g>
			<g>
				<circle class="st11" cx="46.9" cy="27.4" r="0.9"/>
				<circle class="st12" cx="46.9" cy="27.4" r="0.8"/>
				<circle class="st3" cx="46.9" cy="27.4" r="0.6"/>
			</g>
			<g>
				<g>
					<circle class="st11" cx="52.5" cy="27.4" r="0.9"/>
				</g>
				<circle class="st12" cx="52.5" cy="27.4" r="0.8"/>
				<circle class="st3" cx="52.5" cy="27.4" r="0.6"/>
			</g>
		</g>
	</g>
</g>
</svg>
